# xmcd
#
# Track frame offsets:
#	150
#	15198
#	27892
#	41662
#	51231
#	60669
#	77811
#	96303
#
# Disc length: 1605 seconds
#
# Revision: 2
# Processed by: cddbd v1.4PL0 Copyright (c) Steve Scherf et al.
# Submitted via: EasyCDDAExtractor 5.0.7
#
DISCID=5b064308
DTITLE=The Kamikaze Hearts - ADDs 4-7-2003 - KH003
DYEAR=2002
DGENRE=Folk-Rock
TTITLE0=Weekend in Western  New York
TTITLE1=Five Point Turn
TTITLE2=Accident
TTITLE3=Grand Tactics
TTITLE4=War Horse
TTITLE5=Beverly Hills
TTITLE6=Secret Handshake
TTITLE7=In My Way
EXTD=
EXTT0=
EXTT1=
EXTT2=
EXTT3=
EXTT4=
EXTT5=
EXTT6=
EXTT7=
PLAYORDER=
